999
"DXF R12 Output" (www.mydxf.blogspot.com)
 0 
SECTION
 2 
HEADER
 9 
$ACADVER
 1 
AC1009
 9 
$EXTMIN
 10 
 0 
 20 
 0 
 9 
$EXTMAX
 10 
 8.5 
 20 
 11 
 0 
ENDSEC
 0 
SECTION
 2 
ENTITIES
0
LINE
8
Livello 1
10
25.975600
20
150.614000
11
25.975600
21
231.388000
0
LINE
8
Livello 1
10
25.975600
20
231.388000
11
106.750000
21
231.388000
0
LINE
8
Livello 1
10
106.750000
20
231.388000
11
187.524000
21
231.388000
0
LINE
8
Livello 1
10
187.524000
20
231.388000
11
187.524000
21
150.614000
0
LINE
8
Livello 1
10
187.524000
20
150.614000
11
187.524000
21
69.839600
0
LINE
8
Livello 1
10
187.524000
20
69.839600
11
106.750000
21
69.839600
0
LINE
8
Livello 1
10
106.750000
20
69.839600
11
25.975600
21
69.839600
0
LINE
8
Livello 1
10
25.975600
20
69.839600
11
25.975600
21
150.614000
0
LINE
8
Livello 1
10
104.667400
20
140.766420
11
103.150780
21
141.998330
0
LINE
8
Livello 1
10
103.150780
20
141.998330
11
100.391386
21
143.994724
0
LINE
8
Livello 1
10
100.391386
20
143.994724
11
97.911150
21
146.028070
0
LINE
8
Livello 1
10
97.911150
20
146.028070
11
95.565769
21
148.133868
0
LINE
8
Livello 1
10
95.565769
20
148.133868
11
94.932750
21
148.946230
0
LINE
8
Livello 1
10
94.932750
20
148.946230
11
95.362052
21
149.069410
0
LINE
8
Livello 1
10
95.362052
20
149.069410
11
96.498570
21
149.110420
0
LINE
8
Livello 1
10
96.498570
20
149.110420
11
98.375852
21
149.244854
0
LINE
8
Livello 1
10
98.375852
20
149.244854
11
98.963144
21
149.471029
0
LINE
8
Livello 1
10
98.963144
20
149.471029
11
99.526310
21
149.855440
0
LINE
8
Livello 1
10
99.526310
20
149.855440
11
100.273500
21
150.674480
0
LINE
8
Livello 1
10
100.273500
20
150.674480
11
100.863624
21
151.812181
0
LINE
8
Livello 1
10
100.863624
20
151.812181
11
101.283331
21
153.236249
0
LINE
8
Livello 1
10
101.283331
20
153.236249
11
101.519270
21
154.914390
0
LINE
8
Livello 1
10
101.519270
20
154.914390
11
101.427675
21
156.543680
0
LINE
8
Livello 1
10
101.427675
20
156.543680
11
100.884960
21
157.867558
0
LINE
8
Livello 1
10
100.884960
20
157.867558
11
99.858660
21
158.923493
0
LINE
8
Livello 1
10
99.858660
20
158.923493
11
98.316310
21
159.748960
0
LINE
8
Livello 1
10
98.316310
20
159.748960
11
96.202900
21
160.241720
0
LINE
8
Livello 1
10
96.202900
20
160.241720
11
93.910594
21
160.460724
0
LINE
8
Livello 1
10
93.910594
20
160.460724
11
88.655480
21
160.515470
0
LINE
8
Livello 1
10
88.655480
20
160.515470
11
82.680000
21
160.515000
0
LINE
8
Livello 1
10
82.680000
20
160.515000
11
82.460985
21
160.241250
0
LINE
8
Livello 1
10
82.460985
20
160.241250
11
81.931343
21
159.337844
0
LINE
8
Livello 1
10
81.931343
20
159.337844
11
80.884135
21
156.989000
0
LINE
8
Livello 1
10
80.884135
20
156.989000
11
79.991479
21
155.007010
0
LINE
8
Livello 1
10
79.991479
20
155.007010
11
79.498715
21
153.873750
0
LINE
8
Livello 1
10
79.498715
20
153.873750
11
78.628564
21
151.820550
0
LINE
8
Livello 1
10
78.628564
20
151.820550
11
77.112024
21
148.349310
0
LINE
8
Livello 1
10
77.112024
20
148.349310
11
76.280012
21
146.454990
0
LINE
8
Livello 1
10
76.280012
20
146.454990
11
75.469478
21
144.626290
0
LINE
8
Livello 1
10
75.469478
20
144.626290
11
74.969265
21
143.380004
0
LINE
8
Livello 1
10
74.969265
20
143.380004
11
75.031475
21
143.016580
0
LINE
8
Livello 1
10
75.031475
20
143.016580
11
78.292180
21
142.865550
0
LINE
8
Livello 1
10
78.292180
20
142.865550
11
81.593945
21
142.957880
0
LINE
8
Livello 1
10
81.593945
20
142.957880
11
82.436743
21
144.945360
0
LINE
8
Livello 1
10
82.436743
20
144.945360
11
83.373387
21
147.463940
0
LINE
8
Livello 1
10
83.373387
20
147.463940
11
84.402707
21
150.239750
0
LINE
8
Livello 1
10
84.402707
20
150.239750
11
85.410147
21
152.829510
0
LINE
8
Livello 1
10
85.410147
20
152.829510
11
85.738638
21
153.629280
0
LINE
8
Livello 1
10
85.738638
20
153.629280
11
86.340910
21
155.299090
0
LINE
8
Livello 1
10
86.340910
20
155.299090
11
86.852136
21
156.442718
0
LINE
8
Livello 1
10
86.852136
20
156.442718
11
87.309828
21
156.695270
0
LINE
8
Livello 1
10
87.309828
20
156.695270
11
91.208181
21
156.686970
0
LINE
8
Livello 1
10
91.208181
20
156.686970
11
95.059818
21
156.476260
0
LINE
8
Livello 1
10
95.059818
20
156.476260
11
95.481349
21
156.235641
0
LINE
8
Livello 1
10
95.481349
20
156.235641
11
95.655856
21
155.808156
0
LINE
8
Livello 1
10
95.655856
20
155.808156
11
95.587097
21
155.142594
0
LINE
8
Livello 1
10
95.587097
20
155.142594
11
95.278824
21
154.187740
0
LINE
8
Livello 1
10
95.278824
20
154.187740
11
94.704621
21
153.126931
0
LINE
8
Livello 1
10
94.704621
20
153.126931
11
94.341808
21
152.921953
0
LINE
8
Livello 1
10
94.341808
20
152.921953
11
93.806024
21
152.829900
0
LINE
8
Livello 1
10
93.806024
20
152.829900
11
89.655834
21
152.828900
0
LINE
8
Livello 1
10
89.655834
20
152.828900
11
86.091604
21
152.849200
0
LINE
8
Livello 1
10
86.091604
20
152.849200
11
85.934687
21
152.469184
0
LINE
8
Livello 1
10
85.934687
20
152.469184
11
86.150304
21
151.841780
0
LINE
8
Livello 1
10
86.150304
20
151.841780
11
86.998959
21
150.555110
0
LINE
8
Livello 1
10
86.998959
20
150.555110
11
88.570074
21
148.287098
0
LINE
8
Livello 1
10
88.570074
20
148.287098
11
90.324518
21
146.019527
0
LINE
8
Livello 1
10
90.324518
20
146.019527
11
92.098670
21
143.954265
0
LINE
8
Livello 1
10
92.098670
20
143.954265
11
93.728909
21
142.293180
0
LINE
8
Livello 1
10
93.728909
20
142.293180
11
94.791099
21
141.307750
0
LINE
8
Livello 1
10
94.791099
20
141.307750
11
95.442244
21
140.869750
0
LINE
8
Livello 1
10
95.442244
20
140.869750
11
103.008234
21
140.595990
0
LINE
8
Livello 1
10
103.008234
20
140.595990
11
104.336647
21
140.645752
0
LINE
8
Livello 1
10
104.336647
20
140.645752
11
104.650774
21
140.814990
0
LINE
8
Livello 1
10
104.650774
20
140.814990
11
104.667400
21
140.766420
0
LINE
8
Livello 1
10
69.671700
20
142.600610
11
71.336150
21
143.038630
0
LINE
8
Livello 1
10
71.336150
20
143.038630
11
71.971665
21
143.312390
0
LINE
8
Livello 1
10
71.971665
20
143.312390
11
72.697549
21
143.641318
0
LINE
8
Livello 1
10
72.697549
20
143.641318
11
73.462353
21
144.157604
0
LINE
8
Livello 1
10
73.462353
20
144.157604
11
74.665455
21
145.392930
0
LINE
8
Livello 1
10
74.665455
20
145.392930
11
75.479768
21
146.940853
0
LINE
8
Livello 1
10
75.479768
20
146.940853
11
76.440177
21
149.170979
0
LINE
8
Livello 1
10
76.440177
20
149.170979
11
78.087325
21
153.909470
0
LINE
8
Livello 1
10
78.087325
20
153.909470
11
78.304574
21
155.101481
0
LINE
8
Livello 1
10
78.304574
20
155.101481
11
78.287452
21
156.213106
0
LINE
8
Livello 1
10
78.287452
20
156.213106
11
78.048979
21
157.224877
0
LINE
8
Livello 1
10
78.048979
20
157.224877
11
77.602173
21
158.117325
0
LINE
8
Livello 1
10
77.602173
20
158.117325
11
76.960053
21
158.870982
0
LINE
8
Livello 1
10
76.960053
20
158.870982
11
76.135639
21
159.466379
0
LINE
8
Livello 1
10
76.135639
20
159.466379
11
75.141950
21
159.884048
0
LINE
8
Livello 1
10
75.141950
20
159.884048
11
73.992005
21
160.104520
0
LINE
8
Livello 1
10
73.992005
20
160.104520
11
71.845745
21
160.378280
0
LINE
8
Livello 1
10
71.845745
20
160.378280
11
66.989375
21
160.542460
0
LINE
8
Livello 1
10
66.989375
20
160.542460
11
63.625569
21
160.491366
0
LINE
8
Livello 1
10
63.625569
20
160.491366
11
61.629185
21
160.268710
0
LINE
8
Livello 1
10
61.629185
20
160.268710
11
60.089388
21
159.937503
0
LINE
8
Livello 1
10
60.089388
20
159.937503
11
58.853385
21
159.425920
0
LINE
8
Livello 1
10
58.853385
20
159.425920
11
57.624812
21
158.689851
0
LINE
8
Livello 1
10
57.624812
20
158.689851
11
56.453214
21
157.728770
0
LINE
8
Livello 1
10
56.453214
20
157.728770
11
55.377089
21
156.578719
0
LINE
8
Livello 1
10
55.377089
20
156.578719
11
54.434935
21
155.275740
0
LINE
8
Livello 1
10
54.434935
20
155.275740
11
53.136036
21
153.044702
0
LINE
8
Livello 1
10
53.136036
20
153.044702
11
52.157365
21
150.846440
0
LINE
8
Livello 1
10
52.157365
20
150.846440
11
51.644552
21
149.251657
0
LINE
8
Livello 1
10
51.644552
20
149.251657
11
51.275468
21
147.599680
0
LINE
8
Livello 1
10
51.275468
20
147.599680
11
51.154472
21
147.217145
0
LINE
8
Livello 1
10
51.154472
20
147.217145
11
50.946971
21
147.003270
0
LINE
8
Livello 1
10
50.946971
20
147.003270
11
43.701751
21
146.893720
0
LINE
8
Livello 1
10
43.701751
20
146.893720
11
37.757675
21
146.928709
0
LINE
8
Livello 1
10
37.757675
20
146.928709
11
36.826801
21
146.994679
0
LINE
8
Livello 1
10
36.826801
20
146.994679
11
36.574861
21
147.112730
0
LINE
8
Livello 1
10
36.574861
20
147.112730
11
36.517226
21
147.386308
0
LINE
8
Livello 1
10
36.517226
20
147.386308
11
36.688488
21
147.946298
0
LINE
8
Livello 1
10
36.688488
20
147.946298
11
38.305011
21
151.317550
0
LINE
8
Livello 1
10
38.305011
20
151.317550
11
39.564588
21
153.678570
0
LINE
8
Livello 1
10
39.564588
20
153.678570
11
40.686626
21
155.205511
0
LINE
8
Livello 1
10
40.686626
20
155.205511
11
41.886702
21
156.125756
0
LINE
8
Livello 1
10
41.886702
20
156.125756
11
43.380391
21
156.666690
0
LINE
8
Livello 1
10
43.380391
20
156.666690
11
44.727414
21
156.837756
0
LINE
8
Livello 1
10
44.727414
20
156.837756
11
47.634491
21
156.885680
0
LINE
8
Livello 1
10
47.634491
20
156.885680
11
51.056400
21
156.885000
0
LINE
8
Livello 1
10
51.056400
20
156.885000
11
52.233570
21
157.712160
0
LINE
8
Livello 1
10
52.233570
20
157.712160
11
53.974560
21
158.905730
0
LINE
8
Livello 1
10
53.974560
20
158.905730
11
54.669714
21
159.398490
0
LINE
8
Livello 1
10
54.669714
20
159.398490
11
55.326730
21
159.836510
0
LINE
8
Livello 1
10
55.326730
20
159.836510
11
55.723683
21
160.178719
0
LINE
8
Livello 1
10
55.723683
20
160.178719
11
55.709990
21
160.438780
0
LINE
8
Livello 1
10
55.709990
20
160.438780
11
55.503947
21
160.565389
0
LINE
8
Livello 1
10
55.503947
20
160.565389
11
54.677660
21
160.630405
0
LINE
8
Livello 1
10
54.677660
20
160.630405
11
48.929700
21
160.657780
0
LINE
8
Livello 1
10
48.929700
20
160.657780
11
41.645570
21
160.548220
0
LINE
8
Livello 1
10
41.645570
20
160.548220
11
39.861440
21
160.222386
0
LINE
8
Livello 1
10
39.861440
20
160.222386
11
38.836910
21
159.912700
0
LINE
8
Livello 1
10
38.836910
20
159.912700
11
37.577620
21
159.419930
0
LINE
8
Livello 1
10
37.577620
20
159.419930
11
36.411420
21
158.834280
0
LINE
8
Livello 1
10
36.411420
20
158.834280
11
34.412990
21
157.219110
0
LINE
8
Livello 1
10
34.412990
20
157.219110
11
33.766726
21
156.397830
0
LINE
8
Livello 1
10
33.766726
20
156.397830
11
32.590387
21
154.829081
0
LINE
8
Livello 1
10
32.590387
20
154.829081
11
31.373472
21
152.947199
0
LINE
8
Livello 1
10
31.373472
20
152.947199
11
30.295129
21
151.046820
0
LINE
8
Livello 1
10
30.295129
20
151.046820
11
29.534506
21
149.422580
0
LINE
8
Livello 1
10
29.534506
20
149.422580
11
29.096502
21
148.393240
0
LINE
8
Livello 1
10
29.096502
20
148.393240
11
28.324110
21
145.858330
0
LINE
8
Livello 1
10
28.324110
20
145.858330
11
28.248088
21
145.039198
0
LINE
8
Livello 1
10
28.248088
20
145.039198
11
28.373080
21
144.347190
0
LINE
8
Livello 1
10
28.373080
20
144.347190
11
28.646811
21
143.734663
0
LINE
8
Livello 1
10
28.646811
20
143.734663
11
29.249105
21
143.306920
0
LINE
8
Livello 1
10
29.249105
20
143.306920
11
29.911992
21
142.923670
0
LINE
8
Livello 1
10
29.911992
20
142.923670
11
38.683582
21
142.884670
0
LINE
8
Livello 1
10
38.683582
20
142.884670
11
47.707632
21
142.913870
0
LINE
8
Livello 1
10
47.707632
20
142.913870
11
48.480025
21
143.461400
0
LINE
8
Livello 1
10
48.480025
20
143.461400
11
50.418912
21
145.181876
0
LINE
8
Livello 1
10
50.418912
20
145.181876
11
51.113565
21
145.596610
0
LINE
8
Livello 1
10
51.113565
20
145.596610
11
51.496825
21
145.103830
0
LINE
8
Livello 1
10
51.496825
20
145.103830
11
52.019539
21
144.240102
0
LINE
8
Livello 1
10
52.019539
20
144.240102
11
52.783489
21
143.552402
0
LINE
8
Livello 1
10
52.783489
20
143.552402
11
53.814332
21
143.025859
0
LINE
8
Livello 1
10
53.814332
20
143.025859
11
55.137725
21
142.645600
0
LINE
8
Livello 1
10
55.137725
20
142.645600
11
57.067160
21
142.426581
0
LINE
8
Livello 1
10
57.067160
20
142.426581
11
62.212625
21
142.371820
0
LINE
8
Livello 1
10
62.212625
20
142.371820
11
67.551905
21
142.406623
0
LINE
8
Livello 1
10
67.551905
20
142.406623
11
69.646715
21
142.700340
0
LINE
8
Livello 1
10
69.646715
20
142.700340
11
69.671700
21
142.600610
0
LINE
8
Livello 1
10
58.825600
20
146.214220
11
58.311989
21
146.409282
0
LINE
8
Livello 1
10
58.311989
20
146.409282
11
57.973093
21
146.725558
0
LINE
8
Livello 1
10
57.973093
20
146.725558
11
57.813211
21
147.190854
0
LINE
8
Livello 1
10
57.813211
20
147.190854
11
57.836640
21
147.832973
0
LINE
8
Livello 1
10
57.836640
20
147.832973
11
58.450629
21
149.758895
0
LINE
8
Livello 1
10
58.450629
20
149.758895
11
59.849450
21
152.725760
0
LINE
8
Livello 1
10
59.849450
20
152.725760
11
60.762541
21
154.399135
0
LINE
8
Livello 1
10
60.762541
20
154.399135
11
61.557605
21
155.514583
0
LINE
8
Livello 1
10
61.557605
20
155.514583
11
62.348581
21
156.201957
0
LINE
8
Livello 1
10
62.348581
20
156.201957
11
63.249410
21
156.591110
0
LINE
8
Livello 1
10
63.249410
20
156.591110
11
66.153736
21
156.851194
0
LINE
8
Livello 1
10
66.153736
20
156.851194
11
69.927940
21
156.864880
0
LINE
8
Livello 1
10
69.927940
20
156.864880
11
71.255503
21
156.718909
0
LINE
8
Livello 1
10
71.255503
20
156.718909
11
72.011249
21
156.395365
0
LINE
8
Livello 1
10
72.011249
20
156.395365
11
72.282440
21
155.819288
0
LINE
8
Livello 1
10
72.282440
20
155.819288
11
72.156340
21
154.915720
0
LINE
8
Livello 1
10
72.156340
20
154.915720
11
71.429772
21
152.968878
0
LINE
8
Livello 1
10
71.429772
20
152.968878
11
70.310530
21
150.497170
0
LINE
8
Livello 1
10
70.310530
20
150.497170
11
69.157411
21
148.254685
0
LINE
8
Livello 1
10
69.157411
20
148.254685
11
68.329210
21
146.995510
0
LINE
8
Livello 1
10
68.329210
20
146.995510
11
67.442241
21
146.468403
0
LINE
8
Livello 1
10
67.442241
20
146.468403
11
65.799770
21
146.195740
0
LINE
8
Livello 1
10
65.799770
20
146.195740
11
62.032814
21
146.095625
0
LINE
8
Livello 1
10
62.032814
20
146.095625
11
58.830480
21
146.216040
0
LINE
8
Livello 1
10
58.830480
20
146.216040
11
58.825600
21
146.214220
0
LINE
8
Livello 1
10
119.307800
20
142.638940
11
121.949560
21
143.532079
0
LINE
8
Livello 1
10
121.949560
20
143.532079
11
122.914187
21
144.081051
0
LINE
8
Livello 1
10
122.914187
20
144.081051
11
123.720690
21
144.741410
0
LINE
8
Livello 1
10
123.720690
20
144.741410
11
124.335358
21
145.538772
0
LINE
8
Livello 1
10
124.335358
20
145.538772
11
125.033890
21
146.812814
0
LINE
8
Livello 1
10
125.033890
20
146.812814
11
126.655370
21
150.734940
0
LINE
8
Livello 1
10
126.655370
20
150.734940
11
127.430867
21
153.018642
0
LINE
8
Livello 1
10
127.430867
20
153.018642
11
127.841416
21
154.693881
0
LINE
8
Livello 1
10
127.841416
20
154.693881
11
127.920378
21
155.967302
0
LINE
8
Livello 1
10
127.920378
20
155.967302
11
127.701110
21
157.045550
0
LINE
8
Livello 1
10
127.701110
20
157.045550
11
127.101166
21
158.281401
0
LINE
8
Livello 1
10
127.101166
20
158.281401
11
126.220641
21
159.187716
0
LINE
8
Livello 1
10
126.220641
20
159.187716
11
125.008618
21
159.800423
0
LINE
8
Livello 1
10
125.008618
20
159.800423
11
123.414180
21
160.155450
0
LINE
8
Livello 1
10
123.414180
20
160.155450
11
120.125169
21
160.497651
0
LINE
8
Livello 1
10
120.125169
20
160.497651
11
116.467840
21
160.593470
0
LINE
8
Livello 1
10
116.467840
20
160.593470
11
112.735627
21
160.469160
0
LINE
8
Livello 1
10
112.735627
20
160.469160
11
110.021654
21
160.027171
0
LINE
8
Livello 1
10
110.021654
20
160.027171
11
108.930985
21
159.655380
0
LINE
8
Livello 1
10
108.930985
20
159.655380
11
107.956249
21
159.166167
0
LINE
8
Livello 1
10
107.956249
20
159.166167
11
106.169740
21
157.784810
0
LINE
8
Livello 1
10
106.169740
20
157.784810
11
104.746290
21
156.257230
0
LINE
8
Livello 1
10
104.746290
20
156.257230
11
103.142070
21
153.651050
0
LINE
8
Livello 1
10
103.142070
20
153.651050
11
102.704050
21
152.895280
0
LINE
8
Livello 1
10
102.704050
20
152.895280
11
101.971069
21
151.232198
0
LINE
8
Livello 1
10
101.971069
20
151.232198
11
101.324330
21
149.363810
0
LINE
8
Livello 1
10
101.324330
20
149.363810
11
101.050550
21
148.192130
0
LINE
8
Livello 1
10
101.050550
20
148.192130
11
100.940990
21
146.741210
0
LINE
8
Livello 1
10
100.940990
20
146.741210
11
101.179309
21
145.174767
0
LINE
8
Livello 1
10
101.179309
20
145.174767
11
101.478054
21
144.531441
0
LINE
8
Livello 1
10
101.478054
20
144.531441
11
101.899277
21
143.978386
0
LINE
8
Livello 1
10
101.899277
20
143.978386
11
103.117415
21
143.134110
0
LINE
8
Livello 1
10
103.117415
20
143.134110
11
104.850240
21
142.623980
0
LINE
8
Livello 1
10
104.850240
20
142.623980
11
107.233090
21
142.384440
0
LINE
8
Livello 1
10
107.233090
20
142.384440
11
112.990550
21
142.350220
0
LINE
8
Livello 1
10
112.990550
20
142.350220
11
117.577741
21
142.403002
0
LINE
8
Livello 1
10
117.577741
20
142.403002
11
119.301170
21
142.623980
0
LINE
8
Livello 1
10
119.301170
20
142.623980
11
119.307800
21
142.638940
0
LINE
8
Livello 1
10
108.960400
20
146.192310
11
107.933125
21
146.438705
0
LINE
8
Livello 1
10
107.933125
20
146.438705
11
107.558770
21
146.849350
0
LINE
8
Livello 1
10
107.558770
20
146.849350
11
107.426168
21
147.306587
0
LINE
8
Livello 1
10
107.426168
20
147.306587
11
107.442439
21
147.883409
0
LINE
8
Livello 1
10
107.442439
20
147.883409
11
107.942030
21
149.553970
0
LINE
8
Livello 1
10
107.942030
20
149.553970
11
109.241700
21
152.340138
0
LINE
8
Livello 1
10
109.241700
20
152.340138
11
110.570110
21
154.842880
0
LINE
8
Livello 1
10
110.570110
20
154.842880
11
111.275296
21
155.712058
0
LINE
8
Livello 1
10
111.275296
20
155.712058
11
112.122232
21
156.326645
0
LINE
8
Livello 1
10
112.122232
20
156.326645
11
113.141658
21
156.703062
0
LINE
8
Livello 1
10
113.141658
20
156.703062
11
114.364310
21
156.857730
0
LINE
8
Livello 1
10
114.364310
20
156.857730
11
116.707670
21
156.967290
0
LINE
8
Livello 1
10
116.707670
20
156.967290
11
119.483580
21
156.908590
0
LINE
8
Livello 1
10
119.483580
20
156.908590
11
121.214324
21
156.640944
0
LINE
8
Livello 1
10
121.214324
20
156.640944
11
121.815890
21
156.245700
0
LINE
8
Livello 1
10
121.815890
20
156.245700
11
121.983810
21
155.866553
0
LINE
8
Livello 1
10
121.983810
20
155.866553
11
121.845190
21
155.183520
0
LINE
8
Livello 1
10
121.845190
20
155.183520
11
121.248810
21
153.437050
0
LINE
8
Livello 1
10
121.248810
20
153.437050
11
119.732930
21
150.152502
0
LINE
8
Livello 1
10
119.732930
20
150.152502
11
118.221160
21
147.314730
0
LINE
8
Livello 1
10
118.221160
20
147.314730
11
117.481854
21
146.702805
0
LINE
8
Livello 1
10
117.481854
20
146.702805
11
116.348640
21
146.329200
0
LINE
8
Livello 1
10
116.348640
20
146.329200
11
112.614078
21
146.144454
0
LINE
8
Livello 1
10
112.614078
20
146.144454
11
108.967130
21
146.165020
0
LINE
8
Livello 1
10
108.967130
20
146.165020
11
108.960400
21
146.192310
0
LINE
8
Livello 1
10
142.949700
20
143.454730
11
144.020025
21
144.385660
0
LINE
8
Livello 1
10
144.020025
20
144.385660
11
144.564870
21
144.675700
0
LINE
8
Livello 1
10
144.564870
20
144.675700
11
144.715435
21
144.486149
0
LINE
8
Livello 1
10
144.715435
20
144.486149
11
144.455330
21
143.816290
0
LINE
8
Livello 1
10
144.455330
20
143.816290
11
144.220206
21
143.223891
0
LINE
8
Livello 1
10
144.220206
20
143.223891
11
144.418253
21
143.049708
0
LINE
8
Livello 1
10
144.418253
20
143.049708
11
145.017615
21
142.937383
0
LINE
8
Livello 1
10
145.017615
20
142.937383
11
147.993016
21
142.839841
0
LINE
8
Livello 1
10
147.993016
20
142.839841
11
154.291870
21
142.814340
0
LINE
8
Livello 1
10
154.291870
20
142.814340
11
162.308725
21
142.822414
0
LINE
8
Livello 1
10
162.308725
20
142.822414
11
164.311870
21
142.978530
0
LINE
8
Livello 1
10
164.311870
20
142.978530
11
165.970760
21
144.801760
0
LINE
8
Livello 1
10
165.970760
20
144.801760
11
167.554444
21
146.382725
0
LINE
8
Livello 1
10
167.554444
20
146.382725
11
168.145077
21
146.669651
0
LINE
8
Livello 1
10
168.145077
20
146.669651
11
168.916390
21
146.838510
0
LINE
8
Livello 1
10
168.916390
20
146.838510
11
170.602740
21
147.167040
0
LINE
8
Livello 1
10
170.602740
20
147.167040
11
175.491970
21
147.834790
0
LINE
8
Livello 1
10
175.491970
20
147.834790
11
176.222382
21
147.843928
0
LINE
8
Livello 1
10
176.222382
20
147.843928
11
176.555484
21
147.623238
0
LINE
8
Livello 1
10
176.555484
20
147.623238
11
176.537456
21
147.047073
0
LINE
8
Livello 1
10
176.537456
20
147.047073
11
176.214480
21
145.989790
0
LINE
8
Livello 1
10
176.214480
20
145.989790
11
175.587659
21
144.022828
0
LINE
8
Livello 1
10
175.587659
20
144.022828
11
175.420610
21
143.131740
0
LINE
8
Livello 1
10
175.420610
20
143.131740
11
175.516451
21
143.004275
0
LINE
8
Livello 1
10
175.516451
20
143.004275
11
175.906093
21
142.933270
0
LINE
8
Livello 1
10
175.906093
20
142.933270
11
178.530500
21
142.857980
0
LINE
8
Livello 1
10
178.530500
20
142.857980
11
181.826430
21
142.967540
0
LINE
8
Livello 1
10
181.826430
20
142.967540
11
182.031723
21
143.203787
0
LINE
8
Livello 1
10
182.031723
20
143.203787
11
182.154950
21
143.695920
0
LINE
8
Livello 1
10
182.154950
20
143.695920
11
182.373960
21
144.615940
0
LINE
8
Livello 1
10
182.373960
20
144.615940
11
182.647710
21
145.880710
0
LINE
8
Livello 1
10
182.647710
20
145.880710
11
183.797500
21
151.120350
0
LINE
8
Livello 1
10
183.797500
20
151.120350
11
184.361630
21
153.677230
0
LINE
8
Livello 1
10
184.361630
20
153.677230
11
184.690150
21
154.980240
0
LINE
8
Livello 1
10
184.690150
20
154.980240
11
184.854340
21
155.768270
0
LINE
8
Livello 1
10
184.854340
20
155.768270
11
185.292350
21
157.810510
0
LINE
8
Livello 1
10
185.292350
20
157.810510
11
185.531893
21
158.984856
0
LINE
8
Livello 1
10
185.531893
20
158.984856
11
185.566100
21
159.830830
0
LINE
8
Livello 1
10
185.566100
20
159.830830
11
185.527100
21
160.460470
0
LINE
8
Livello 1
10
185.527100
20
160.460470
11
184.897450
21
160.570030
0
LINE
8
Livello 1
10
184.897450
20
160.570030
11
181.684533
21
160.649662
0
LINE
8
Livello 1
10
181.684533
20
160.649662
11
178.618600
21
160.549730
0
LINE
8
Livello 1
10
178.618600
20
160.549730
11
177.189610
21
160.275970
0
LINE
8
Livello 1
10
177.189610
20
160.275970
11
174.901060
21
159.636060
0
LINE
8
Livello 1
10
174.901060
20
159.636060
11
172.661740
21
158.753870
0
LINE
8
Livello 1
10
172.661740
20
158.753870
11
169.311040
21
156.662470
0
LINE
8
Livello 1
10
169.311040
20
156.662470
11
165.303210
21
152.895550
0
LINE
8
Livello 1
10
165.303210
20
152.895550
11
161.142190
21
148.822130
0
LINE
8
Livello 1
10
161.142190
20
148.822130
11
159.160180
21
146.900340
0
LINE
8
Livello 1
10
159.160180
20
146.900340
11
156.168000
21
146.900000
0
LINE
8
Livello 1
10
156.168000
20
146.900000
11
153.678945
21
146.938328
0
LINE
8
Livello 1
10
153.678945
20
146.938328
11
152.976090
21
147.119020
0
LINE
8
Livello 1
10
152.976090
20
147.119020
11
152.813218
21
147.414665
0
LINE
8
Livello 1
10
152.813218
20
147.414665
11
152.987290
21
148.170240
0
LINE
8
Livello 1
10
152.987290
20
148.170240
11
154.244340
21
151.969575
0
LINE
8
Livello 1
10
154.244340
20
151.969575
11
155.620760
21
155.438430
0
LINE
8
Livello 1
10
155.620760
20
155.438430
11
156.743853
21
157.770760
0
LINE
8
Livello 1
10
156.743853
20
157.770760
11
157.772490
21
159.002660
0
LINE
8
Livello 1
10
157.772490
20
159.002660
11
158.686660
21
160.157930
0
LINE
8
Livello 1
10
158.686660
20
160.157930
11
158.084389
21
160.328988
0
LINE
8
Livello 1
10
158.084389
20
160.328988
11
155.270150
21
160.376910
0
LINE
8
Livello 1
10
155.270150
20
160.376910
11
151.634730
21
160.267350
0
LINE
8
Livello 1
10
151.634730
20
160.267350
11
151.135202
21
159.563064
0
LINE
8
Livello 1
10
151.135202
20
159.563064
11
150.134540
21
157.310860
0
LINE
8
Livello 1
10
150.134540
20
157.310860
11
148.946440
21
154.573280
0
LINE
8
Livello 1
10
148.946440
20
154.573280
11
148.617910
21
153.768610
0
LINE
8
Livello 1
10
148.617910
20
153.768610
11
147.741890
21
151.709940
0
LINE
8
Livello 1
10
147.741890
20
151.709940
11
146.411530
21
148.600160
0
LINE
8
Livello 1
10
146.411530
20
148.600160
11
145.771130
21
147.182100
0
LINE
8
Livello 1
10
145.771130
20
147.182100
11
145.606950
21
146.908340
0
LINE
8
Livello 1
10
145.606950
20
146.908340
11
139.639000
21
146.908000
0
LINE
8
Livello 1
10
139.639000
20
146.908000
11
133.919338
21
146.996934
0
LINE
8
Livello 1
10
133.919338
20
146.996934
11
133.283985
21
147.225280
0
LINE
8
Livello 1
10
133.283985
20
147.225280
11
133.290630
21
147.680370
0
LINE
8
Livello 1
10
133.290630
20
147.680370
11
134.289168
21
150.989792
0
LINE
8
Livello 1
10
134.289168
20
150.989792
11
136.022750
21
155.381600
0
LINE
8
Livello 1
10
136.022750
20
155.381600
11
137.171696
21
157.717426
0
LINE
8
Livello 1
10
137.171696
20
157.717426
11
138.415390
21
159.285380
0
LINE
8
Livello 1
10
138.415390
20
159.285380
11
139.009557
21
159.956348
0
LINE
8
Livello 1
10
139.009557
20
159.956348
11
139.064576
21
160.159367
0
LINE
8
Livello 1
10
139.064576
20
160.159367
11
138.910821
21
160.292129
0
LINE
8
Livello 1
10
138.910821
20
160.292129
11
137.834807
21
160.401033
0
LINE
8
Livello 1
10
137.834807
20
160.401033
11
135.497140
21
160.391370
0
LINE
8
Livello 1
10
135.497140
20
160.391370
11
132.572803
21
160.324150
0
LINE
8
Livello 1
10
132.572803
20
160.324150
11
132.088685
21
160.249721
0
LINE
8
Livello 1
10
132.088685
20
160.249721
11
131.878140
21
160.117610
0
LINE
8
Livello 1
10
131.878140
20
160.117610
11
130.974740
21
158.288890
0
LINE
8
Livello 1
10
130.974740
20
158.288890
11
129.501940
21
154.866920
0
LINE
8
Livello 1
10
129.501940
20
154.866920
11
128.702170
21
152.945250
0
LINE
8
Livello 1
10
128.702170
20
152.945250
11
128.264140
21
151.883060
0
LINE
8
Livello 1
10
128.264140
20
151.883060
11
126.375210
21
147.617900
0
LINE
8
Livello 1
10
126.375210
20
147.617900
11
125.745570
21
146.117810
0
LINE
8
Livello 1
10
125.745570
20
146.117810
11
125.170670
21
144.792830
0
LINE
8
Livello 1
10
125.170670
20
144.792830
11
124.546910
21
143.199540
0
LINE
8
Livello 1
10
124.546910
20
143.199540
11
124.711090
21
142.980550
0
LINE
8
Livello 1
10
124.711090
20
142.980550
11
133.554960
21
142.921850
0
LINE
8
Livello 1
10
133.554960
20
142.921850
11
142.241230
21
142.911150
0
LINE
8
Livello 1
10
142.241230
20
142.911150
11
142.958840
21
143.578900
0
LINE
8
Livello 1
10
142.958840
20
143.578900
11
142.949700
21
143.454730
0
LINE
8
Livello 1
10
171.877900
20
151.551330
11
171.823171
21
151.695021
0
LINE
8
Livello 1
10
171.823171
20
151.695021
11
171.932669
21
151.920876
0
LINE
8
Livello 1
10
171.932669
20
151.920876
11
172.808650
21
152.865380
0
LINE
8
Livello 1
10
172.808650
20
152.865380
11
174.167132
21
154.071652
0
LINE
8
Livello 1
10
174.167132
20
154.071652
11
175.627993
21
155.038243
0
LINE
8
Livello 1
10
175.627993
20
155.038243
11
177.125292
21
155.728702
0
LINE
8
Livello 1
10
177.125292
20
155.728702
11
178.593090
21
156.106580
0
LINE
8
Livello 1
10
178.593090
20
156.106580
11
179.047121
21
156.130463
0
LINE
8
Livello 1
10
179.047121
20
156.130463
11
179.182282
21
155.845829
0
LINE
8
Livello 1
10
179.182282
20
155.845829
11
178.428900
21
153.199350
0
LINE
8
Livello 1
10
178.428900
20
153.199350
11
178.100370
21
152.098850
0
LINE
8
Livello 1
10
178.100370
20
152.098850
11
177.826610
21
151.660830
0
LINE
8
Livello 1
10
177.826610
20
151.660830
11
174.820850
21
151.441820
0
LINE
8
Livello 1
10
174.820850
20
151.441820
11
172.489117
21
151.411489
0
LINE
8
Livello 1
10
172.489117
20
151.411489
11
171.869740
21
151.551370
0
LINE
8
Livello 1
10
171.869740
20
151.551370
11
171.877900
21
151.551330
 0 
ENDSEC
 0 
EOF